<?xml version="1.0" encoding="iso-8859-1"?>
<!-- Uploaded to: SVG Repo, www.svgrepo.com, Generator: SVG Repo Mixer Tools -->
<svg height="800px" width="800px" version="1.1" id="Layer_1" xmlns="http://www.w3.org/2000/svg" xmlns:xlink="http://www.w3.org/1999/xlink" 
	 viewBox="0 0 512 512" xml:space="preserve">
<path style="fill:#9E9E9E;" d="M288.457,338.895h-64.914c-89.628,0-162.286,72.657-162.286,162.286l0,0h389.485l0,0
	C450.743,411.553,378.085,338.895,288.457,338.895z"/>
<circle style="fill:#ECF0F1;" cx="256" cy="202.857" r="192.038"/>
<circle style="fill:#2196F3;" cx="256" cy="202.857" r="102.781"/>
<circle style="fill:#9E9E9E;" cx="256" cy="202.857" r="48.686"/>
<g>
	<path style="fill:#231F20;" d="M256,316.457c62.639,0,113.6-50.961,113.6-113.6s-50.961-113.6-113.6-113.6
		s-113.6,50.961-113.6,113.6S193.361,316.457,256,316.457z M256,110.895c50.708,0,91.962,41.254,91.962,91.962
		S306.708,294.819,256,294.819s-91.962-41.254-91.962-91.962S205.292,110.895,256,110.895z"/>
	<path style="fill:#231F20;" d="M256,262.362c32.811,0,59.505-26.694,59.505-59.505S288.811,143.352,256,143.352
		s-59.505,26.694-59.505,59.505S223.189,262.362,256,262.362z M256,164.99c20.88,0,37.867,16.987,37.867,37.867
		S276.88,240.724,256,240.724s-37.867-16.987-37.867-37.867S235.12,164.99,256,164.99z"/>
	<path style="fill:#231F20;" d="M255.459,67.259h1.082c5.974,0,10.819-4.845,10.819-10.819s-4.845-10.819-10.819-10.819h-1.082
		c-5.974,0-10.819,4.845-10.819,10.819S249.485,67.259,255.459,67.259z"/>
	<path style="fill:#231F20;" d="M225.707,448.696h-9.377c-5.974,0-10.819,4.845-10.819,10.819s4.845,10.819,10.819,10.819h9.377
		c5.974,0,10.819-4.845,10.819-10.819S231.682,448.696,225.707,448.696z"/>
	<path style="fill:#231F20;" d="M386.127,358.348c44.427-37.241,72.73-93.119,72.73-155.491C458.857,91.001,367.856,0,256,0
		S53.143,91.001,53.143,202.857c0,62.371,28.303,118.249,72.73,155.491c-45.515,31.218-75.435,83.592-75.435,142.833
		c0,5.974,4.845,10.819,10.819,10.819h389.485c5.974,0,10.819-4.845,10.819-10.819C461.562,441.94,431.642,389.567,386.127,358.348z
		 M74.781,202.857c0-99.924,81.295-181.219,181.219-181.219s181.219,81.295,181.219,181.219S355.924,384.076,256,384.076
		S74.781,302.78,74.781,202.857z M72.459,490.362c3.546-49.981,31.466-93.321,71.897-118.223
		c32.045,21.205,70.424,33.575,111.644,33.575s79.599-12.369,111.645-33.575c28.661,17.652,51.021,44.571,62.879,76.557H276.916
		c-5.974,0-10.819,4.845-10.819,10.819s4.845,10.819,10.819,10.819h159.847c1.358,6.534,2.295,13.22,2.777,20.029H72.459V490.362z"
		/>
</g>
</svg>